<svg id="Layer_1" data-name="Layer 1" xmlns="http://www.w3.org/2000/svg" viewBox="0 0 13.92 14.04">
	<defs>
		<style>.cls-1{fill:#424242;}</style>
	</defs>
	<path class="cls-1" d="M13.55,4.88a.5.5,0,0,0-.43.15L10.35,7.84a.53.53,0,0,0-.14.4,2.34,2.34,0,0,1-.68,1.65h0a2.28,2.28,0,0,1-1.64.69,2.34,2.34,0,0,1,0-4.67.51.51,0,0,0,.35-.15L11,2.93a.46.46,0,0,0,.14-.43.51.51,0,0,0-.28-.37A6.78,6.78,0,0,0,3.07,3.44h0v0a6.76,6.76,0,0,0-1.16,8h0a6.74,6.74,0,0,0,7.8,3.31h.07a6.85,6.85,0,0,0,2.77-1.59l0,0,0,0a6.76,6.76,0,0,0,1.33-8A.52.52,0,0,0,13.55,4.88ZM10,13.64l-.64-2.41a2.88,2.88,0,0,0,.5-.3l1.69,1.82A5.79,5.79,0,0,1,10,13.64ZM2.08,8.24q0-.3,0-.6L4.57,8a2,2,0,0,0,0,.24,3.12,3.12,0,0,0,.18,1L2.55,10.51A5.73,5.73,0,0,1,2.08,8.24ZM3.43,4.53,5.2,6.29A3,3,0,0,0,4.78,7L2.31,6.66A5.73,5.73,0,0,1,3.43,4.53ZM9.74,2.76,7.61,4.92a3.35,3.35,0,0,0-1.72.65L4.14,3.82A5.78,5.78,0,0,1,7.88,2.45,5.63,5.63,0,0,1,9.74,2.76ZM3,11.39l2.14-1.23a3.32,3.32,0,0,0,2.72,1.42,3.91,3.91,0,0,0,.48-.05L9,13.92A5.19,5.19,0,0,1,7.88,14,5.8,5.8,0,0,1,3,11.39Zm9.21.66-1.7-1.82a3.44,3.44,0,0,0,.67-1.82l2.12-2.16a5.87,5.87,0,0,1,.35,2A5.78,5.78,0,0,1,12.23,12.05Z" transform="translate(-1.08 -1)" />
	<path class="cls-1" d="M8.17,7A1.36,1.36,0,0,0,7.88,7,1.27,1.27,0,1,0,9.15,8.22,1.23,1.23,0,0,0,9,7.62l4.27-4.18a1.29,1.29,0,0,0,.48.1,1.27,1.27,0,1,0-1.27-1.27,1.34,1.34,0,0,0,.09.45Z" transform="translate(-1.08 -1)" />
</svg>