<?xml version="1.0" encoding="utf-8"?>
<!-- Generator: Adobe Illustrator 25.2.0, SVG Export Plug-In . SVG Version: 6.00 Build 0)  -->
<svg version="1.1" id="Layer_1"
  xmlns="http://www.w3.org/2000/svg"
  xmlns:xlink="http://www.w3.org/1999/xlink" x="0px" y="0px" viewBox="0 0 16 16" style="enable-background:new 0 0 16 16;" xml:space="preserve">
  <style type="text/css">
  .st0{fill:#c5c5c5;}
  </style>
  <g>
    <path class="st0" d="M12.8,11.9c-0.3-0.2-0.7-0.4-1.1-0.6c0.7-0.3,1.3-0.7,1.8-1.2c1-1,1.6-2.3,1.6-3.8s-0.6-2.8-1.6-3.8
    s-2.3-1.6-3.8-1.6H1.4c-0.1,0-0.2,0-0.3,0.1C1.1,1.2,1,1.3,1,1.4s0,0.2,0.1,0.3s0.2,0.1,0.3,0.1c1.3,0,2.4,0.5,3.2,1.3
    C5.5,4,6,5.1,6,6.4S5.5,8.8,4.6,9.6c-0.8,0.8-2,1.3-3.2,1.3H1.3C1.1,11,1,11.1,1,11.3v0.1c0,0.2,0.2,0.4,0.4,0.4h0.3
    c0.9,0,1.7,0.3,2.4,0.8c0.8,0.5,1.3,1.3,1.6,2.2C5.8,14.9,5.9,15,6.1,15h8.2c0.1,0,0.3-0.1,0.3-0.2c0.1-0.1,0.1-0.2,0.1-0.4
    C14.3,13.5,13.7,12.6,12.8,11.9 M5.2,10.2c1-1,1.6-2.3,1.6-3.8S6.2,3.6,5.2,2.6C4.9,2.3,4.6,2,4.2,1.8h5.4c1.3,0,2.4,0.5,3.2,1.3
    s1.3,2,1.3,3.2s-0.5,2.4-1.3,3.2c-0.8,0.8-2,1.3-3.2,1.3H9.5H4.2C4.6,10.7,4.9,10.5,5.2,10.2 M4.5,11.9c-0.1-0.1-0.2-0.1-0.3-0.2
    h5.7c0.9,0,1.7,0.3,2.4,0.8c0.6,0.4,1.1,1,1.4,1.7H6.4C6,13.3,5.3,12.5,4.5,11.9"/>
    <path class="st0" d="M8.4,6.4c0,0.2,0.2,0.4,0.4,0.4h4c0.2,0,0.4-0.2,0.4-0.4S13,6,12.8,6h-4C8.6,6,8.4,6.2,8.4,6.4"/>
    <path class="st0" d="M8.1,8.4h4c0.2,0,0.4-0.2,0.4-0.4c0-0.2-0.2-0.4-0.4-0.4h-4C7.9,7.6,7.7,7.7,7.7,8C7.7,8.2,7.9,8.4,8.1,8.4"/>
    <path class="st0" d="M8.1,5.2h4c0.2,0,0.4-0.2,0.4-0.4c0-0.2-0.2-0.4-0.4-0.4h-4c-0.2,0-0.4,0.2-0.4,0.4C7.7,5,7.9,5.2,8.1,5.2"/>
  </g>
</svg>
