<svg width="144" height="144" fill="none" viewBox="0 0 144 144" xmlns="http://www.w3.org/2000/svg"><rect width="144" height="144" rx="72" fill="var(--gl-illustration-base-fill-color, #e7e4f2ff)"/><circle cx="72" cy="72" r="36" fill="var(--gl-illustration-accent-fill-color-orange, #ff9d73ff)"/><circle cx="72" cy="72" r="28" fill="var(--gl-illustration-fill-color-default, #ffffff)"/><path d="M83 83L72 72V50" stroke="var(--gl-illustration-stroke-color-default, #171321ff)" stroke-width="var(--gl-illustration-stroke-width-default, 2)"/><path d="M83 83L72 72V50M72 43a1 1 0 110 2 1 1 0 010-2zm28 28a1 1 0 110 2 1 1 0 010-2zM72 99a1 1 0 110 2 1 1 0 010-2zM44 71a1 1 0 110 2 1 1 0 010-2z" stroke="var(--gl-illustration-stroke-color-default, #171321ff)" stroke-width="2"/><circle cx="72" cy="72" r="4" fill="var(--gl-illustration-fill-color-default, #ffffff)" stroke="var(--gl-illustration-stroke-color-default, #171321ff)" stroke-width="2"/><circle cx="72" cy="72" r="4" fill="var(--gl-illustration-fill-color-default, #ffffff)" stroke="var(--gl-illustration-stroke-color-default, #171321ff)" stroke-width="var(--gl-illustration-stroke-width-default, 2)"/><path d="M103.716 57.198a34.998 34.998 0 01-40.246 48.747 35.003 35.003 0 01-25.918-40.136A35 35 0 0198.54 49.183" stroke="var(--gl-illustration-stroke-color-default, #171321ff)" stroke-width="var(--gl-illustration-stroke-width-default, 2)" stroke-linecap="square"/><path d="M92 50h7v-7m-10.935-9.806a42 42 0 00-55.809 52.387" stroke="var(--gl-illustration-stroke-color-default, #171321ff)" stroke-width="var(--gl-illustration-stroke-width-default, 2)" stroke-linecap="square"/></svg>